<mxfile host="app.diagrams.net" modified="2023-12-06T07:28:32.631Z" agent="Mozilla/5.0 (Macintosh; Intel Mac OS X 10_15_7) AppleWebKit/537.36 (KHTML, like Gecko) Chrome/119.0.0.0 Safari/537.36" etag="KXetVj9om6fSEdckToRU" version="22.1.5" type="github">
  <diagram name="Page-1" id="JHaaU6NFo8X3d21TWG8B">
    <mxGraphModel dx="2669" dy="1326" grid="1" gridSize="10" guides="1" tooltips="1" connect="1" arrows="1" fold="1" page="1" pageScale="1" pageWidth="850" pageHeight="1100" math="0" shadow="0">
      <root>
        <mxCell id="0" />
        <mxCell id="1" parent="0" />
        <mxCell id="mslve8zWukUBzVXUummT-24" value="" style="edgeStyle=orthogonalEdgeStyle;rounded=0;orthogonalLoop=1;jettySize=auto;html=1;" edge="1" parent="1" source="mslve8zWukUBzVXUummT-3" target="mslve8zWukUBzVXUummT-22">
          <mxGeometry relative="1" as="geometry" />
        </mxCell>
        <mxCell id="mslve8zWukUBzVXUummT-3" value="SeacowsPositionManager" style="rounded=1;whiteSpace=wrap;html=1;" vertex="1" parent="1">
          <mxGeometry x="50" y="490" width="290" height="60" as="geometry" />
        </mxCell>
        <mxCell id="mslve8zWukUBzVXUummT-4" value="SeacowsERC721Pair" style="rounded=1;whiteSpace=wrap;html=1;" vertex="1" parent="1">
          <mxGeometry x="30" y="760" width="330" height="60" as="geometry" />
        </mxCell>
        <mxCell id="mslve8zWukUBzVXUummT-36" style="edgeStyle=orthogonalEdgeStyle;rounded=0;orthogonalLoop=1;jettySize=auto;html=1;" edge="1" parent="1" source="mslve8zWukUBzVXUummT-5" target="mslve8zWukUBzVXUummT-4">
          <mxGeometry relative="1" as="geometry" />
        </mxCell>
        <mxCell id="mslve8zWukUBzVXUummT-5" value="SeacowsRouter" style="rounded=1;whiteSpace=wrap;html=1;" vertex="1" parent="1">
          <mxGeometry x="420" y="760" width="330" height="60" as="geometry" />
        </mxCell>
        <mxCell id="mslve8zWukUBzVXUummT-7" value="Pricing Kernel Lib" style="shape=cylinder3;whiteSpace=wrap;html=1;boundedLbl=1;backgroundOutline=1;size=15;" vertex="1" parent="1">
          <mxGeometry x="-340" y="750" width="160" height="80" as="geometry" />
        </mxCell>
        <mxCell id="mslve8zWukUBzVXUummT-29" style="edgeStyle=orthogonalEdgeStyle;rounded=0;orthogonalLoop=1;jettySize=auto;html=1;" edge="1" parent="1" source="mslve8zWukUBzVXUummT-9" target="mslve8zWukUBzVXUummT-20">
          <mxGeometry relative="1" as="geometry">
            <Array as="points">
              <mxPoint x="-360" y="380" />
              <mxPoint x="-360" y="380" />
            </Array>
          </mxGeometry>
        </mxCell>
        <mxCell id="mslve8zWukUBzVXUummT-9" value="Liquidity Provider" style="shape=umlActor;verticalLabelPosition=bottom;verticalAlign=top;html=1;outlineConnect=0;" vertex="1" parent="1">
          <mxGeometry x="-430" y="350" width="30" height="60" as="geometry" />
        </mxCell>
        <mxCell id="mslve8zWukUBzVXUummT-45" value="" style="edgeStyle=orthogonalEdgeStyle;rounded=0;orthogonalLoop=1;jettySize=auto;html=1;" edge="1" parent="1" source="mslve8zWukUBzVXUummT-10" target="mslve8zWukUBzVXUummT-23">
          <mxGeometry relative="1" as="geometry" />
        </mxCell>
        <mxCell id="mslve8zWukUBzVXUummT-10" value="Trader" style="shape=umlActor;verticalLabelPosition=bottom;verticalAlign=top;html=1;outlineConnect=0;" vertex="1" parent="1">
          <mxGeometry x="570" y="480" width="30" height="60" as="geometry" />
        </mxCell>
        <mxCell id="mslve8zWukUBzVXUummT-32" style="edgeStyle=orthogonalEdgeStyle;rounded=0;orthogonalLoop=1;jettySize=auto;html=1;exitX=1;exitY=0.5;exitDx=0;exitDy=0;" edge="1" parent="1" source="mslve8zWukUBzVXUummT-20" target="mslve8zWukUBzVXUummT-3">
          <mxGeometry relative="1" as="geometry">
            <Array as="points">
              <mxPoint x="80" y="380" />
            </Array>
          </mxGeometry>
        </mxCell>
        <mxCell id="mslve8zWukUBzVXUummT-20" value="&lt;b&gt;&lt;font color=&quot;#000000&quot; style=&quot;font-size: 16px;&quot;&gt;Mint&lt;/font&gt;&lt;/b&gt;" style="rounded=1;whiteSpace=wrap;html=1;fillColor=#007FFF;strokeColor=#2D7600;fontColor=#ffffff;" vertex="1" parent="1">
          <mxGeometry x="-320" y="350" width="120" height="60" as="geometry" />
        </mxCell>
        <mxCell id="mslve8zWukUBzVXUummT-31" style="edgeStyle=orthogonalEdgeStyle;rounded=0;orthogonalLoop=1;jettySize=auto;html=1;entryX=0;entryY=0.5;entryDx=0;entryDy=0;" edge="1" parent="1" source="mslve8zWukUBzVXUummT-21" target="mslve8zWukUBzVXUummT-3">
          <mxGeometry relative="1" as="geometry" />
        </mxCell>
        <mxCell id="mslve8zWukUBzVXUummT-21" value="&lt;b&gt;&lt;font color=&quot;#000000&quot; style=&quot;font-size: 16px;&quot;&gt;Deposit&lt;br&gt;&lt;/font&gt;&lt;/b&gt;" style="rounded=1;whiteSpace=wrap;html=1;fillColor=#007FFF;strokeColor=#2D7600;fontColor=#ffffff;" vertex="1" parent="1">
          <mxGeometry x="-320" y="490" width="120" height="60" as="geometry" />
        </mxCell>
        <mxCell id="mslve8zWukUBzVXUummT-25" value="" style="edgeStyle=orthogonalEdgeStyle;rounded=0;orthogonalLoop=1;jettySize=auto;html=1;" edge="1" parent="1" source="mslve8zWukUBzVXUummT-22" target="mslve8zWukUBzVXUummT-4">
          <mxGeometry relative="1" as="geometry" />
        </mxCell>
        <mxCell id="mslve8zWukUBzVXUummT-22" value="&lt;b&gt;&lt;font color=&quot;#000000&quot; style=&quot;font-size: 16px;&quot;&gt;Deploy&lt;/font&gt;&lt;/b&gt;" style="rounded=1;whiteSpace=wrap;html=1;fillColor=#007FFF;strokeColor=#2D7600;fontColor=#ffffff;" vertex="1" parent="1">
          <mxGeometry x="135" y="610" width="120" height="60" as="geometry" />
        </mxCell>
        <mxCell id="mslve8zWukUBzVXUummT-35" value="" style="edgeStyle=orthogonalEdgeStyle;rounded=0;orthogonalLoop=1;jettySize=auto;html=1;" edge="1" parent="1" source="mslve8zWukUBzVXUummT-23" target="mslve8zWukUBzVXUummT-5">
          <mxGeometry relative="1" as="geometry" />
        </mxCell>
        <mxCell id="mslve8zWukUBzVXUummT-23" value="&lt;b&gt;&lt;font color=&quot;#000000&quot; style=&quot;font-size: 16px;&quot;&gt;Swap&lt;/font&gt;&lt;/b&gt;" style="rounded=1;whiteSpace=wrap;html=1;fillColor=#007FFF;strokeColor=#2D7600;fontColor=#ffffff;" vertex="1" parent="1">
          <mxGeometry x="525" y="610" width="120" height="60" as="geometry" />
        </mxCell>
        <mxCell id="mslve8zWukUBzVXUummT-30" style="edgeStyle=orthogonalEdgeStyle;rounded=0;orthogonalLoop=1;jettySize=auto;html=1;" edge="1" parent="1" source="mslve8zWukUBzVXUummT-27" target="mslve8zWukUBzVXUummT-21">
          <mxGeometry relative="1" as="geometry" />
        </mxCell>
        <mxCell id="mslve8zWukUBzVXUummT-27" value="Liquidity Provider" style="shape=umlActor;verticalLabelPosition=bottom;verticalAlign=top;html=1;outlineConnect=0;" vertex="1" parent="1">
          <mxGeometry x="-430" y="490" width="30" height="60" as="geometry" />
        </mxCell>
        <mxCell id="mslve8zWukUBzVXUummT-37" value="&lt;b&gt;&lt;font color=&quot;#000000&quot; style=&quot;font-size: 16px;&quot;&gt;Withdraw&lt;br&gt;&lt;/font&gt;&lt;/b&gt;" style="rounded=1;whiteSpace=wrap;html=1;fillColor=#007FFF;strokeColor=#2D7600;fontColor=#ffffff;" vertex="1" parent="1">
          <mxGeometry x="-320" y="630" width="120" height="60" as="geometry" />
        </mxCell>
        <mxCell id="mslve8zWukUBzVXUummT-38" style="edgeStyle=orthogonalEdgeStyle;rounded=0;orthogonalLoop=1;jettySize=auto;html=1;" edge="1" source="mslve8zWukUBzVXUummT-39" target="mslve8zWukUBzVXUummT-37" parent="1">
          <mxGeometry relative="1" as="geometry" />
        </mxCell>
        <mxCell id="mslve8zWukUBzVXUummT-39" value="Liquidity Provider" style="shape=umlActor;verticalLabelPosition=bottom;verticalAlign=top;html=1;outlineConnect=0;" vertex="1" parent="1">
          <mxGeometry x="-430" y="630" width="30" height="60" as="geometry" />
        </mxCell>
        <mxCell id="mslve8zWukUBzVXUummT-40" style="edgeStyle=orthogonalEdgeStyle;rounded=0;orthogonalLoop=1;jettySize=auto;html=1;entryX=0.121;entryY=1;entryDx=0;entryDy=0;entryPerimeter=0;" edge="1" parent="1" source="mslve8zWukUBzVXUummT-37" target="mslve8zWukUBzVXUummT-3">
          <mxGeometry relative="1" as="geometry" />
        </mxCell>
        <mxCell id="mslve8zWukUBzVXUummT-47" value="" style="endArrow=classic;startArrow=classic;html=1;rounded=0;entryX=0.5;entryY=1;entryDx=0;entryDy=0;exitX=0.5;exitY=0;exitDx=0;exitDy=0;exitPerimeter=0;strokeWidth=1;" edge="1" parent="1" source="mslve8zWukUBzVXUummT-7" target="mslve8zWukUBzVXUummT-37">
          <mxGeometry width="100" height="100" relative="1" as="geometry">
            <mxPoint x="-300" y="830" as="sourcePoint" />
            <mxPoint x="-200" y="730" as="targetPoint" />
          </mxGeometry>
        </mxCell>
      </root>
    </mxGraphModel>
  </diagram>
</mxfile>
